{
    "asset" : {
        "generator" : "Khronos glTF Blender I/O v1.1.46",
        "version" : "2.0"
    },
    "scene" : 0,
    "scenes" : [
        {
            "name" : "Scene",
            "nodes" : [
                0,
                1,
                2,
                3,
                4,
                5,
                6
            ]
        }
    ],
    "nodes" : [
        {
            "mesh" : 0,
            "name" : "Torso",
            "translation" : [
                0,
                -0.42652657628059387,
                0
            ]
        },
        {
            "mesh" : 1,
            "name" : "Head",
            "translation" : [
                0,
                0.7804844379425049,
                0
            ]
        },
        {
            "mesh" : 2,
            "name" : "Hand.Left",
            "rotation" : [
                0.45030906796455383,
                0,
                0,
                0.8928727507591248
            ],
            "translation" : [
                0.699999988079071,
                -0.5514575242996216,
                0.23433291912078857
            ]
        },
        {
            "mesh" : 3,
            "name" : "Hand.Right",
            "rotation" : [
                0.45030906796455383,
                0,
                0,
                0.8928727507591248
            ],
            "scale" : [
                -1,
                1,
                1
            ],
            "translation" : [
                -0.699999988079071,
                -0.5514575242996216,
                0.23433291912078857
            ]
        },
        {
            "mesh" : 4,
            "name" : "Shirt",
            "translation" : [
                0,
                -0.42652657628059387,
                0
            ]
        },
        {
            "mesh" : 5,
            "name" : "Helmet",
            "translation" : [
                0,
                0.9072734117507935,
                0
            ]
        },
        {
            "mesh" : 6,
            "name" : "FaceShield",
            "translation" : [
                0.0016975111793726683,
                0.7386617064476013,
                0.44668877124786377
            ]
        }
    ],
    "materials" : [
        {
            "doubleSided" : true,
            "emissiveFactor" : [
                0,
                0,
                0
            ],
            "name" : "SkinTone",
            "pbrMetallicRoughness" : {
                "metallicFactor" : 0,
                "roughnessFactor" : 0.6083333492279053
            }
        },
        {
            "doubleSided" : true,
            "emissiveFactor" : [
                0,
                0,
                0
            ],
            "name" : "Shirt",
            "pbrMetallicRoughness" : {
                "baseColorFactor" : [
                    0.5382252335548401,
                    0.49401217699050903,
                    0.44928106665611267,
                    1
                ],
                "metallicFactor" : 0,
                "roughnessFactor" : 0.5583332777023315
            }
        },
        {
            "doubleSided" : true,
            "emissiveFactor" : [
                0,
                0,
                0
            ],
            "name" : "Helmet",
            "pbrMetallicRoughness" : {
                "baseColorFactor" : [
                    0,
                    0,
                    0,
                    1
                ],
                "metallicFactor" : 0,
                "roughnessFactor" : 0.40833333134651184
            }
        },
        {
            "alphaMode" : "BLEND",
            "doubleSided" : true,
            "name" : "Plexi",
            "pbrMetallicRoughness" : {}
        }
    ],
    "meshes" : [
        {
            "name" : "Cube.005",
            "primitives" : [
                {
                    "attributes" : {
                        "POSITION" : 0,
                        "NORMAL" : 1,
                        "TEXCOORD_0" : 2,
                        "COLOR_0" : 3
                    },
                    "indices" : 4,
                    "material" : 0
                }
            ]
        },
        {
            "name" : "Cylinder.002",
            "primitives" : [
                {
                    "attributes" : {
                        "POSITION" : 5,
                        "NORMAL" : 6,
                        "TEXCOORD_0" : 7
                    },
                    "indices" : 8,
                    "material" : 0
                }
            ]
        },
        {
            "name" : "Cube.006",
            "primitives" : [
                {
                    "attributes" : {
                        "POSITION" : 9,
                        "NORMAL" : 10,
                        "TEXCOORD_0" : 11
                    },
                    "indices" : 12,
                    "material" : 0
                }
            ]
        },
        {
            "name" : "Cube.007",
            "primitives" : [
                {
                    "attributes" : {
                        "POSITION" : 13,
                        "NORMAL" : 14,
                        "TEXCOORD_0" : 15
                    },
                    "indices" : 12,
                    "material" : 0
                }
            ]
        },
        {
            "name" : "Cube.009",
            "primitives" : [
                {
                    "attributes" : {
                        "POSITION" : 16,
                        "NORMAL" : 17,
                        "TEXCOORD_0" : 18,
                        "COLOR_0" : 19
                    },
                    "indices" : 20,
                    "material" : 1
                }
            ]
        },
        {
            "name" : "Cylinder.001",
            "primitives" : [
                {
                    "attributes" : {
                        "POSITION" : 21,
                        "NORMAL" : 22,
                        "TEXCOORD_0" : 23
                    },
                    "indices" : 24,
                    "material" : 2
                }
            ]
        },
        {
            "name" : "Cylinder.005",
            "primitives" : [
                {
                    "attributes" : {
                        "POSITION" : 25,
                        "NORMAL" : 26,
                        "TEXCOORD_0" : 27
                    },
                    "indices" : 28,
                    "material" : 3
                }
            ]
        }
    ],
    "accessors" : [
        {
            "bufferView" : 0,
            "componentType" : 5126,
            "count" : 2544,
            "max" : [
                0.6956064701080322,
                0.8882187604904175,
                0.4294048547744751
            ],
            "min" : [
                -0.6956064701080322,
                -0.40968891978263855,
                -0.3967110514640808
            ],
            "type" : "VEC3"
        },
        {
            "bufferView" : 1,
            "componentType" : 5126,
            "count" : 2544,
            "type" : "VEC3"
        },
        {
            "bufferView" : 2,
            "componentType" : 5126,
            "count" : 2544,
            "type" : "VEC2"
        },
        {
            "bufferView" : 3,
            "componentType" : 5126,
            "count" : 2544,
            "type" : "VEC4"
        },
        {
            "bufferView" : 4,
            "componentType" : 5123,
            "count" : 12288,
            "type" : "SCALAR"
        },
        {
            "bufferView" : 5,
            "componentType" : 5126,
            "count" : 2119,
            "max" : [
                0.3409966826438904,
                0.3838353753089905,
                0.39368048310279846
            ],
            "min" : [
                -0.3409740626811981,
                -0.42485105991363525,
                -0.3495330810546875
            ],
            "type" : "VEC3"
        },
        {
            "bufferView" : 6,
            "componentType" : 5126,
            "count" : 2119,
            "type" : "VEC3"
        },
        {
            "bufferView" : 7,
            "componentType" : 5126,
            "count" : 2119,
            "type" : "VEC2"
        },
        {
            "bufferView" : 8,
            "componentType" : 5123,
            "count" : 9216,
            "type" : "SCALAR"
        },
        {
            "bufferView" : 9,
            "componentType" : 5126,
            "count" : 285,
            "max" : [
                0.13599221408367157,
                0.14894968271255493,
                0.2080601155757904
            ],
            "min" : [
                -0.17667444050312042,
                -0.1491679847240448,
                -0.15383709967136383
            ],
            "type" : "VEC3"
        },
        {
            "bufferView" : 10,
            "componentType" : 5126,
            "count" : 285,
            "type" : "VEC3"
        },
        {
            "bufferView" : 11,
            "componentType" : 5126,
            "count" : 285,
            "type" : "VEC2"
        },
        {
            "bufferView" : 12,
            "componentType" : 5123,
            "count" : 1008,
            "type" : "SCALAR"
        },
        {
            "bufferView" : 13,
            "componentType" : 5126,
            "count" : 285,
            "max" : [
                0.13599221408367157,
                0.14894968271255493,
                0.2080601155757904
            ],
            "min" : [
                -0.17667444050312042,
                -0.1491679847240448,
                -0.15383709967136383
            ],
            "type" : "VEC3"
        },
        {
            "bufferView" : 14,
            "componentType" : 5126,
            "count" : 285,
            "type" : "VEC3"
        },
        {
            "bufferView" : 15,
            "componentType" : 5126,
            "count" : 285,
            "type" : "VEC2"
        },
        {
            "bufferView" : 16,
            "componentType" : 5126,
            "count" : 2728,
            "max" : [
                0.7270776629447937,
                0.9449176788330078,
                0.46310052275657654
            ],
            "min" : [
                -0.7270776629447937,
                -0.45567166805267334,
                -0.427697092294693
            ],
            "type" : "VEC3"
        },
        {
            "bufferView" : 17,
            "componentType" : 5126,
            "count" : 2728,
            "type" : "VEC3"
        },
        {
            "bufferView" : 18,
            "componentType" : 5126,
            "count" : 2728,
            "type" : "VEC2"
        },
        {
            "bufferView" : 19,
            "componentType" : 5126,
            "count" : 2728,
            "type" : "VEC4"
        },
        {
            "bufferView" : 20,
            "componentType" : 5123,
            "count" : 12720,
            "type" : "SCALAR"
        },
        {
            "bufferView" : 21,
            "componentType" : 5126,
            "count" : 2119,
            "max" : [
                0.4072638750076294,
                0.4177250266075134,
                0.4512784779071808
            ],
            "min" : [
                -0.42955681681632996,
                -0.30046191811561584,
                -0.47617754340171814
            ],
            "type" : "VEC3"
        },
        {
            "bufferView" : 22,
            "componentType" : 5126,
            "count" : 2119,
            "type" : "VEC3"
        },
        {
            "bufferView" : 23,
            "componentType" : 5126,
            "count" : 2119,
            "type" : "VEC2"
        },
        {
            "bufferView" : 24,
            "componentType" : 5123,
            "count" : 9216,
            "type" : "SCALAR"
        },
        {
            "bufferView" : 25,
            "componentType" : 5126,
            "count" : 689,
            "max" : [
                0.37289291620254517,
                0.25912588834762573,
                0.10588279366493225
            ],
            "min" : [
                -0.3761110305786133,
                -0.25774383544921875,
                -0.18444916605949402
            ],
            "type" : "VEC3"
        },
        {
            "bufferView" : 26,
            "componentType" : 5126,
            "count" : 689,
            "type" : "VEC3"
        },
        {
            "bufferView" : 27,
            "componentType" : 5126,
            "count" : 689,
            "type" : "VEC2"
        },
        {
            "bufferView" : 28,
            "componentType" : 5123,
            "count" : 3120,
            "type" : "SCALAR"
        }
    ],
    "bufferViews" : [
        {
            "buffer" : 0,
            "byteLength" : 30528,
            "byteOffset" : 0
        },
        {
            "buffer" : 0,
            "byteLength" : 30528,
            "byteOffset" : 30528
        },
        {
            "buffer" : 0,
            "byteLength" : 20352,
            "byteOffset" : 61056
        },
        {
            "buffer" : 0,
            "byteLength" : 40704,
            "byteOffset" : 81408
        },
        {
            "buffer" : 0,
            "byteLength" : 24576,
            "byteOffset" : 122112
        },
        {
            "buffer" : 0,
            "byteLength" : 25428,
            "byteOffset" : 146688
        },
        {
            "buffer" : 0,
            "byteLength" : 25428,
            "byteOffset" : 172116
        },
        {
            "buffer" : 0,
            "byteLength" : 16952,
            "byteOffset" : 197544
        },
        {
            "buffer" : 0,
            "byteLength" : 18432,
            "byteOffset" : 214496
        },
        {
            "buffer" : 0,
            "byteLength" : 3420,
            "byteOffset" : 232928
        },
        {
            "buffer" : 0,
            "byteLength" : 3420,
            "byteOffset" : 236348
        },
        {
            "buffer" : 0,
            "byteLength" : 2280,
            "byteOffset" : 239768
        },
        {
            "buffer" : 0,
            "byteLength" : 2016,
            "byteOffset" : 242048
        },
        {
            "buffer" : 0,
            "byteLength" : 3420,
            "byteOffset" : 244064
        },
        {
            "buffer" : 0,
            "byteLength" : 3420,
            "byteOffset" : 247484
        },
        {
            "buffer" : 0,
            "byteLength" : 2280,
            "byteOffset" : 250904
        },
        {
            "buffer" : 0,
            "byteLength" : 32736,
            "byteOffset" : 253184
        },
        {
            "buffer" : 0,
            "byteLength" : 32736,
            "byteOffset" : 285920
        },
        {
            "buffer" : 0,
            "byteLength" : 21824,
            "byteOffset" : 318656
        },
        {
            "buffer" : 0,
            "byteLength" : 43648,
            "byteOffset" : 340480
        },
        {
            "buffer" : 0,
            "byteLength" : 25440,
            "byteOffset" : 384128
        },
        {
            "buffer" : 0,
            "byteLength" : 25428,
            "byteOffset" : 409568
        },
        {
            "buffer" : 0,
            "byteLength" : 25428,
            "byteOffset" : 434996
        },
        {
            "buffer" : 0,
            "byteLength" : 16952,
            "byteOffset" : 460424
        },
        {
            "buffer" : 0,
            "byteLength" : 18432,
            "byteOffset" : 477376
        },
        {
            "buffer" : 0,
            "byteLength" : 8268,
            "byteOffset" : 495808
        },
        {
            "buffer" : 0,
            "byteLength" : 8268,
            "byteOffset" : 504076
        },
        {
            "buffer" : 0,
            "byteLength" : 5512,
            "byteOffset" : 512344
        },
        {
            "buffer" : 0,
            "byteLength" : 6240,
            "byteOffset" : 517856
        }
    ],
    "buffers" : [
        {
            "byteLength" : 524096,
            "uri" : "data:application/octet-stream;base64,"
        }
    ]
}
